<svg xmlns="http://www.w3.org/2000/svg" viewBox="0 0 113.39 55.81"><defs><style>.cls-1{fill:#00aeef;}.cls-2{fill:#8dc63f;}</style></defs><title>Asset 1</title><g id="Layer_2" data-name="Layer 2"><g id="Layer_1-2" data-name="Layer 1"><path class="cls-1" d="M0,20.86q0-5.77,5.42-5.77a8.69,8.69,0,0,1,3.5.81v2.33a5.64,5.64,0,0,0-3.14-1.06A2.87,2.87,0,0,0,3.51,18a4.26,4.26,0,0,0-.75,2.83,4.07,4.07,0,0,0,.77,2.81,3.09,3.09,0,0,0,2.37.83,4.76,4.76,0,0,0,1.43-.25,6.5,6.5,0,0,0,1.59-.78V25.8a6.89,6.89,0,0,1-1.65.56,8.66,8.66,0,0,1-1.85.21Q0,26.57,0,20.86Z"/><path class="cls-1" d="M9.25,14h2.18l.78,1.84H10.86Zm7.6,4.37A2.4,2.4,0,0,1,18,20.68l0,4a1.59,1.59,0,0,1-1,1.51,7.39,7.39,0,0,1-3,.47q-3.67,0-3.67-2.86A2.39,2.39,0,0,1,11,21.87a3.23,3.23,0,0,1,2.24-.68,4.87,4.87,0,0,1,1.22.16,4.37,4.37,0,0,1,1.06.4v-.53q0-1.44-1.85-1.44a4.52,4.52,0,0,0-1.46.26,3.76,3.76,0,0,0-1.2.62V18.48A4.36,4.36,0,0,1,12.38,18a8.58,8.58,0,0,1,2-.22A5,5,0,0,1,16.85,18.39ZM13.43,15h2l1.44,2H15.23l-.81-1-.81,1H12Zm1.77,9.71a.45.45,0,0,0,.33-.46V23a3.94,3.94,0,0,0-1.27-.2,2.24,2.24,0,0,0-1.18.24.83.83,0,0,0-.37.75.93.93,0,0,0,.39.78,1.44,1.44,0,0,0,.92.3A4.19,4.19,0,0,0,15.2,24.76Z"/><path class="cls-1" d="M21,25.75a3.13,3.13,0,0,1-1-2.58V18h2.46v5a1.71,1.71,0,0,0,.36,1.18,1.47,1.47,0,0,0,1.13.39,1.47,1.47,0,0,0,1.13-.39A1.7,1.7,0,0,0,25.43,23V18h2.31v5.17a3.21,3.21,0,0,1-1,2.58,4.21,4.21,0,0,1-2.82.85A4.43,4.43,0,0,1,21,25.75Z"/><path class="cls-1" d="M41,15.34l-4.31,11H33.81l-4.11-11h3.09l2.68,8,2.67-8Z"/><path class="cls-1" d="M40,14h2.18L43,15.85H41.64Zm1.85,11.47a4.7,4.7,0,0,1-1.05-3.34,4.62,4.62,0,0,1,1-3.37,4.3,4.3,0,0,1,3.18-1.06,4.35,4.35,0,0,1,3.21,1.08,4.61,4.61,0,0,1,1.07,3.35,4.58,4.58,0,0,1-1.11,3.32,4.21,4.21,0,0,1-3.17,1.14A4.15,4.15,0,0,1,41.89,25.48ZM44.22,15h2l1.44,2H46l-.81-1-.81,1H42.76Zm2.21,9a3.14,3.14,0,0,0,.46-1.86,3.1,3.1,0,0,0-.46-1.91,1.65,1.65,0,0,0-1.38-.57,1.6,1.6,0,0,0-1.38.57,3.3,3.3,0,0,0-.42,1.91A3.25,3.25,0,0,0,43.7,24a1.56,1.56,0,0,0,1.36.61A1.59,1.59,0,0,0,46.43,24Z"/><path class="cls-1" d="M52.84,18.06a10.84,10.84,0,0,1,2.37-.3,4.27,4.27,0,0,1,2.66.69,2.7,2.7,0,0,1,.89,2.28v5.62H56.3V21.24q0-1.44-1.62-1.44a3.61,3.61,0,0,0-.74.08,2.28,2.28,0,0,0-.59.2v6.28H50.88V18.71A8.13,8.13,0,0,1,52.84,18.06Z"/><path class="cls-1" d="M67.56,18.35a1.85,1.85,0,0,1,1,1.66v6.44a3.27,3.27,0,0,1-1.11,2.66,4.79,4.79,0,0,1-3.16.92,10.5,10.5,0,0,1-1.85-.15,4.31,4.31,0,0,1-1.24-.4V27.34a7.24,7.24,0,0,0,1.34.44,6.79,6.79,0,0,0,1.65.22,2.13,2.13,0,0,0,1.51-.43,1.62,1.62,0,0,0,.44-1.21v-.48a3.12,3.12,0,0,1-2.12.73,3.78,3.78,0,0,1-2.71-1.12,4.33,4.33,0,0,1-1-3.05q0-2.61,1.2-3.64a5.19,5.19,0,0,1,3.48-1A4.86,4.86,0,0,1,67.56,18.35Zm-4.3,5.75a1.61,1.61,0,0,0,1.35.67,2.93,2.93,0,0,0,1.49-.38V20.56q0-.84-1.32-.84-2,0-2,2.58A3,3,0,0,0,63.26,24.11Z"/><path class="cls-1" d="M29.93,32.78q2,1.12,2,4l0,7A2.83,2.83,0,0,1,30,46.46a13.1,13.1,0,0,1-5.28.83q-6.47,0-6.47-5a4.25,4.25,0,0,1,1.33-3.32,5.72,5.72,0,0,1,4-1.2,8.57,8.57,0,0,1,2.16.28,8,8,0,0,1,1.87.71v-.93q0-2.54-3.27-2.54a8,8,0,0,0-2.58.45,6.75,6.75,0,0,0-2.12,1.1V32.94A7.75,7.75,0,0,1,22,32a15.38,15.38,0,0,1,3.48-.38A8.77,8.77,0,0,1,29.93,32.78ZM27,44a.8.8,0,0,0,.58-.82V40.93a6.92,6.92,0,0,0-2.25-.35,4,4,0,0,0-2.08.42,1.46,1.46,0,0,0-.66,1.33,1.64,1.64,0,0,0,.68,1.37,2.58,2.58,0,0,0,1.62.52A7.27,7.27,0,0,0,27,44Z"/><path class="cls-1" d="M38.94,32.21a19.2,19.2,0,0,1,4.17-.52,7.54,7.54,0,0,1,4.69,1.23,4.77,4.77,0,0,1,1.58,4v8.66c0,1.4-4.34,1.26-4.34,1.26v-9q0-2.54-2.86-2.54a6.34,6.34,0,0,0-1.31.15,4.19,4.19,0,0,0-1,.35v9.74c0,1.4-4.35,1.34-4.35,1.34V33.35A14.42,14.42,0,0,1,38.94,32.21Z"/><path class="cls-1" d="M15.82,45.52l-5-6L15,36c2.06-1.71-.83-4.66-.83-4.66l-6,5L4.68,32.17C3,30.11,0,33,0,33l5,6L.86,42.49c-2.29,1.91.81,4.67.81,4.67l6-5,3.48,4.18C13.06,48.63,15.82,45.52,15.82,45.52Z"/><path class="cls-1" d="M52.93,33.33c0-1.85,4.32-1.4,4.32-1.4v13.5c0,1.56-4.32,1.42-4.32,1.42Z"/><path class="cls-1" d="M63.42,33.14c0-1.49,4.32-1.21,4.32-1.21V45.68c0,1.45-4.32,1.17-4.32,1.17Z"/><rect class="cls-1" x="55.48" y="38.75" width="10.87" height="2.17"/><path class="cls-2" d="M93.07,0a20.32,20.32,0,0,0-9.65,38.21v7.68a20.26,20.26,0,0,0,8.5-17.5c-.51-7.84-4.86-14-11.83-16.48C92.78,13.44,97,24,97,27.18c6.07-7.4,5.24-18.11,5.26-18.17,3.78,8.78.88,18.09-.56,20.9a27.74,27.74,0,0,1-8.17,10.71A20.32,20.32,0,0,0,93.07,0Zm4.79,19c-1.47.55-3.22-.5-3.9-2.33s0-3.76,1.42-4.31,3.21.5,3.9,2.33S99.33,18.41,97.86,19Z"/><path class="cls-2" d="M34.93,52.81q0-3,2.83-3a4.53,4.53,0,0,1,1.83.42v1.22A2.94,2.94,0,0,0,38,50.89a1.5,1.5,0,0,0-1.19.44,2.22,2.22,0,0,0-.39,1.48,2.13,2.13,0,0,0,.4,1.46,1.61,1.61,0,0,0,1.24.43,2.48,2.48,0,0,0,.75-.13,3.43,3.43,0,0,0,.83-.4v1.21a3.56,3.56,0,0,1-.86.29,4.49,4.49,0,0,1-1,.11Q34.93,55.79,34.93,52.81Z"/><path class="cls-2" d="M44.31,51.58a1.59,1.59,0,0,1,.42,1.24v2.86H43.45V53.09a.73.73,0,0,0-.83-.83,1.44,1.44,0,0,0-.41.06,1,1,0,0,0-.32.15l0,3.21H40.6V49.6H41.9v1.92a2.57,2.57,0,0,1,1.23-.32A1.71,1.71,0,0,1,44.31,51.58Z"/><path class="cls-2" d="M49.08,51.52a1.25,1.25,0,0,1,.59,1.19v2.06a.84.84,0,0,1-.54.79,3.89,3.89,0,0,1-1.56.25q-1.91,0-1.91-1.49a1.26,1.26,0,0,1,.39-1A1.69,1.69,0,0,1,47.2,53a2.54,2.54,0,0,1,.64.08,2.33,2.33,0,0,1,.55.21V53q0-.75-1-.75a2.35,2.35,0,0,0-.76.13,2,2,0,0,0-.62.32V51.57a2.29,2.29,0,0,1,.71-.27,4.51,4.51,0,0,1,1-.11A2.6,2.6,0,0,1,49.08,51.52Zm-.86,3.32a.24.24,0,0,0,.17-.24v-.67a2,2,0,0,0-.66-.1,1.18,1.18,0,0,0-.62.12.43.43,0,0,0-.19.39.48.48,0,0,0,.2.41.76.76,0,0,0,.48.16A2.15,2.15,0,0,0,48.21,54.84Z"/><path class="cls-2" d="M51.83,51.35a5.68,5.68,0,0,1,1.23-.15,2.24,2.24,0,0,1,1.39.36,1.42,1.42,0,0,1,.46,1.19v2.93H53.63V53q0-.75-.84-.75a1.85,1.85,0,0,0-.39,0,1.24,1.24,0,0,0-.31.1v3.28H50.8v-4A4.25,4.25,0,0,1,51.83,51.35Z"/><path class="cls-2" d="M57.07,51.35a5.68,5.68,0,0,1,1.23-.15,2.24,2.24,0,0,1,1.39.36,1.42,1.42,0,0,1,.46,1.19v2.93H58.88V53q0-.75-.84-.75a1.86,1.86,0,0,0-.39,0,1.24,1.24,0,0,0-.31.1v3.28H56v-4A4.25,4.25,0,0,1,57.07,51.35Z"/><path class="cls-2" d="M65.25,53.84H62.37a1.07,1.07,0,0,0,1.22.9,2.2,2.2,0,0,0,.63-.09,6.26,6.26,0,0,0,.65-.24v1.1a4.11,4.11,0,0,1-1.59.29,2.41,2.41,0,0,1-1.16-.27,1.9,1.9,0,0,1-.78-.78,2.48,2.48,0,0,1-.28-1.2,2.53,2.53,0,0,1,.56-1.76,2.05,2.05,0,0,1,1.61-.63Q65.27,51.17,65.25,53.84ZM62.36,53H64a1.2,1.2,0,0,0-.25-.66.71.71,0,0,0-.55-.2Q62.49,52.16,62.36,53Z"/><path class="cls-2" d="M66.14,55.68v-6h1.28v6Z"/></g></g></svg>