<svg xmlns="http://www.w3.org/2000/svg" viewBox="0 0 543.37 267.43"><defs><style>.cls-1{fill:#fff;}</style></defs><title>Asset 10</title><g id="Layer_2" data-name="Layer 2"><g id="Layer_1-2" data-name="Layer 1"><path class="cls-1" d="M0,100Q0,72.31,26,72.32A41.64,41.64,0,0,1,42.76,76.2V87.37q-7.6-5.07-15-5.07c-4.84,0-8.49,1.36-10.89,4.08s-3.6,7.24-3.6,13.58,1.23,10.82,3.69,13.45,6.24,4,11.36,4a22.79,22.79,0,0,0,6.87-1.2,31.19,31.19,0,0,0,7.61-3.73v11.17a33,33,0,0,1-7.92,2.68,41.41,41.41,0,0,1-8.86,1Q0,127.34,0,100Z"/><path class="cls-1" d="M44.34,67.17H54.79L58.51,76H52ZM80.76,88.11q5.38,3.06,5.37,11L86.06,118c0,3.33-1.71,5.73-5,7.24s-8,2.26-14.33,2.26q-17.57,0-17.57-13.69c0-3.85,1.19-6.87,3.6-9s6-3.26,10.73-3.26a23.32,23.32,0,0,1,5.86.76,21,21,0,0,1,5.07,1.93v-2.54q0-6.89-8.86-6.88a21.63,21.63,0,0,0-7,1.23,18,18,0,0,0-5.75,3V88.54a20.86,20.86,0,0,1,6.54-2.45,41.07,41.07,0,0,1,9.45-1A23.87,23.87,0,0,1,80.76,88.11Zm-16.39-16H74l6.89,9.57H73L69.13,77l-3.88,4.67H57.4Zm8.47,46.56a2.17,2.17,0,0,0,1.58-2.21v-6.19a18.89,18.89,0,0,0-6.09-.94c-2.59,0-4.47.38-5.67,1.15a4,4,0,0,0-1.78,3.6,4.47,4.47,0,0,0,1.86,3.72,6.91,6.91,0,0,0,4.39,1.42A20.11,20.11,0,0,0,72.84,118.64Z"/><path class="cls-1" d="M100.84,123.39q-5-4.11-5-12.35V86.25H107.6v23.83c0,2.54.57,4.43,1.7,5.67s2.94,1.85,5.42,1.85,4.29-.62,5.43-1.85,1.71-3.13,1.71-5.67V86.25h11.08V111q0,8.32-4.79,12.39t-13.5,4.08C108.78,127.51,104.19,126.12,100.84,123.39Z"/><path class="cls-1" d="M196.38,73.51l-20.67,52.8H162l-19.71-52.8h14.8l12.84,38.56,12.81-38.48Z"/><path class="cls-1" d="M191.88,67.17h10.46L206,76h-6.49Zm8.86,54.95q-5.07-5.36-5.05-16,0-11.08,5-16.14t15.24-5.07c6.82,0,11.93,1.73,15.37,5.17s5.14,8.82,5.14,16q0,10.46-5.31,15.92t-15.2,5.47Q205.8,127.51,200.74,122.12Zm11.16-50h9.58l6.89,9.57h-7.84L216.66,77l-3.89,4.67h-7.83Zm10.61,43q2.22-3,2.22-8.92,0-6.41-2.18-9.14c-1.45-1.83-3.65-2.73-6.61-2.73s-5.26.9-6.61,2.73-2,4.87-2,9.14q0,6.11,2.1,9c1.38,2,3.58,2.93,6.53,2.93A7.62,7.62,0,0,0,222.52,115Z"/><path class="cls-1" d="M253.24,86.57a52,52,0,0,1,11.33-1.42c5.65,0,9.89,1.1,12.74,3.33s4.27,5.85,4.27,10.91v26.93H269.79V101.78q0-6.9-7.77-6.9a17.28,17.28,0,0,0-3.57.4,11,11,0,0,0-2.84.94v30.09H243.82V89.65A39,39,0,0,1,253.24,86.57Z"/><path class="cls-1" d="M323.75,88a8.88,8.88,0,0,1,4.55,7.95v30.88q0,8.32-5.31,12.75T307.88,144a50.19,50.19,0,0,1-8.87-.7,20.58,20.58,0,0,1-5.93-1.9V131a34.49,34.49,0,0,0,6.41,2.12,32.54,32.54,0,0,0,7.91,1q5.15,0,7.24-2a7.76,7.76,0,0,0,2.1-5.79V124a15,15,0,0,1-10.14,3.49q-8.39-.41-13-5.35T289,107.54q0-12.5,5.75-17.46t16.66-4.93Q319.19,85.15,323.75,88Zm-20.59,27.56a7.7,7.7,0,0,0,6.46,3.21,14.06,14.06,0,0,0,7.13-1.83V98.52q0-4-6.34-4-9.67,0-9.66,12.36C300.74,110.48,301.56,113.37,303.16,115.52Z"/><path class="cls-1" d="M143.41,157.09q9.51,5.37,9.5,19.34l-.13,33.39c-.09,5.85-3,10.13-8.81,12.78s-14.21,4-25.29,4q-31,0-31-24.15,0-10.19,6.36-15.93c4.24-3.83,10.55-5.73,18.93-5.73a41.06,41.06,0,0,1,10.34,1.33,38.21,38.21,0,0,1,8.95,3.41V181q0-12.17-15.65-12.16a38.44,38.44,0,0,0-12.36,2.17,32.36,32.36,0,0,0-10.15,5.25V157.85c2.53-1.66,6.36-3.11,11.54-4.33a73.65,73.65,0,0,1,16.7-1.81A42,42,0,0,1,143.41,157.09Zm-14,53.86a3.81,3.81,0,0,0,2.8-3.91v-10.9a33.2,33.2,0,0,0-10.76-1.67c-4.57,0-7.9.68-10,2a7,7,0,0,0-3.15,6.35,7.87,7.87,0,0,0,3.28,6.57,12.38,12.38,0,0,0,7.76,2.52C124.22,211.92,127.57,211.61,129.44,211Z"/><path class="cls-1" d="M186.59,154.36a92,92,0,0,1,20-2.51q14.94,0,22.49,5.88T236.62,177v41.49c0,6.7-20.82,6-20.82,6V181.19q0-12.17-13.69-12.16a30.44,30.44,0,0,0-6.29.7,20.17,20.17,0,0,0-5,1.68v46.68c0,6.7-20.83,6.41-20.83,6.41v-64.7Q175.42,156.87,186.59,154.36Z"/><path class="cls-1" d="M75.82,218.13l-24-28.69L72,172.6c9.86-8.22-4-22.33-4-22.33L39.25,174.33,22.42,154.15c-8.24-9.87-22.36,4-22.36,4L24.11,187c-8.86,7.4-16.53,13.8-20,16.65C-6.84,212.78,8,226,8,226l28.69-23.93,16.7,20C62.57,233,75.82,218.13,75.82,218.13Z"/><path class="cls-1" d="M253.67,159.74c0-8.88,20.68-6.72,20.68-6.72V217.7c0,7.49-20.68,6.81-20.68,6.81Z"/><path class="cls-1" d="M303.94,158.81c0-7.16,20.68-5.79,20.68-5.79v65.86c0,7-20.68,5.62-20.68,5.62Z"/><rect class="cls-1" x="265.89" y="185.7" width="52.07" height="10.38"/><path class="cls-1" d="M446,0a97.38,97.38,0,0,0-46.23,183.09l0,5.63v31.16s42.48-26.29,40.73-83.86c-2.46-37.58-23.3-66.86-56.69-79,60.82,7.37,81.14,57.85,81.14,73.2C494,94.78,490,43.47,490.15,43.18c18.1,42.08,4.23,86.71-2.67,100.17-10.93,24-24.61,40-39.13,51.33A97.36,97.36,0,0,0,446,0Zm23,90.86c-7,2.62-15.42-2.38-18.67-11.15s-.23-18,6.81-20.65,15.39,2.38,18.67,11.15S476,88.24,469,90.86Z"/><path class="cls-1" d="M167.41,253.06q0-14.42,13.55-14.42a21.69,21.69,0,0,1,8.76,2v5.82a14.09,14.09,0,0,0-7.85-2.64q-3.81,0-5.68,2.13t-1.88,7.08q0,5,1.92,7c1.28,1.38,3.25,2.07,5.93,2.07a11.88,11.88,0,0,0,3.59-.62,16.35,16.35,0,0,0,4-1.94v5.82a17.05,17.05,0,0,1-4.13,1.41,21.55,21.55,0,0,1-4.62.54Q167.41,267.35,167.41,253.06Z"/><path class="cls-1" d="M212.35,247.15q2,1.82,2,5.95v13.71h-6.16V254.38q0-4-4-4a6.85,6.85,0,0,0-1.94.29,4.7,4.7,0,0,0-1.52.7l-.08,15.41h-6.11V237.65h6.2v9.21a12.35,12.35,0,0,1,5.91-1.53A8.17,8.17,0,0,1,212.35,247.15Z"/><path class="cls-1" d="M235.19,246.89q2.81,1.59,2.81,5.72l0,9.87a4,4,0,0,1-2.6,3.78,18.65,18.65,0,0,1-7.47,1.17q-9.17,0-9.17-7.14a6,6,0,0,1,1.88-4.71,8.12,8.12,0,0,1,5.6-1.69,12.25,12.25,0,0,1,3.05.39,11.32,11.32,0,0,1,2.65,1V254q0-3.59-4.63-3.59a11.29,11.29,0,0,0-3.66.64,9.81,9.81,0,0,0-3,1.55v-5.45a11,11,0,0,1,3.41-1.28,21.67,21.67,0,0,1,4.94-.53A12.45,12.45,0,0,1,235.19,246.89Zm-4.13,15.92a1.12,1.12,0,0,0,.83-1.16v-3.22a9.76,9.76,0,0,0-3.18-.49,5.67,5.67,0,0,0-3,.6,2.08,2.08,0,0,0-.92,1.88,2.32,2.32,0,0,0,1,1.94,3.65,3.65,0,0,0,2.29.74A10.32,10.32,0,0,0,231.06,262.81Z"/><path class="cls-1" d="M248.36,246.08a27.31,27.31,0,0,1,5.91-.74q4.42,0,6.65,1.73t2.23,5.7v14H257V254c0-2.4-1.35-3.59-4-3.59a8.93,8.93,0,0,0-1.86.2,5.86,5.86,0,0,0-1.48.49v15.7h-6.16V247.69A20.38,20.38,0,0,1,248.36,246.08Z"/><path class="cls-1" d="M273.51,246.08a27.29,27.29,0,0,1,5.91-.74c2.94,0,5.17.58,6.65,1.73s2.23,3.06,2.23,5.7v14h-6.15V254q0-3.6-4-3.59a9,9,0,0,0-1.86.2,5.86,5.86,0,0,0-1.48.49v15.7H268.6V247.69A20.33,20.33,0,0,1,273.51,246.08Z"/><path class="cls-1" d="M312.68,258h-13.8q.79,4.33,5.83,4.33a10.49,10.49,0,0,0,3-.43,29.85,29.85,0,0,0,3.12-1.13V266a19.63,19.63,0,0,1-7.6,1.41,11.54,11.54,0,0,1-5.58-1.3,9.14,9.14,0,0,1-3.72-3.74,11.88,11.88,0,0,1-1.32-5.74q0-5.46,2.7-8.45t7.7-3Q312.8,245.21,312.68,258Zm-13.84-3.93h7.73a5.76,5.76,0,0,0-1.18-3.18,3.43,3.43,0,0,0-2.62-1Q299.46,249.92,298.84,254.05Z"/><path class="cls-1" d="M317,266.81V238h6.12v28.79Z"/></g></g></svg>