<svg xmlns="http://www.w3.org/2000/svg" xmlns:xlink="http://www.w3.org/1999/xlink" preserveAspectRatio="xMidYMid" width="32" height="32" viewBox="0 0 32 32">
  <defs>
    <style>
      .cls-1 {
        fill: #fff;
        fill-rule: evenodd;
      }
    </style>
  </defs>
  <path d="M17.828,16.000 L31.620,29.793 C32.125,30.298 32.125,31.116 31.620,31.621 C31.368,31.874 31.036,32.000 30.707,32.000 C30.377,32.000 30.044,31.874 29.792,31.621 L16.000,17.829 L2.208,31.621 C1.955,31.873 1.624,32.000 1.295,32.000 C0.962,32.000 0.632,31.874 0.379,31.621 C-0.125,31.116 -0.125,30.298 0.379,29.793 L14.171,16.000 L0.379,2.208 C-0.125,1.703 -0.125,0.884 0.379,0.380 C0.885,-0.125 1.703,-0.125 2.208,0.380 L16.000,14.172 L29.792,0.380 C30.297,-0.125 31.116,-0.125 31.620,0.380 C32.125,0.884 32.125,1.703 31.620,2.208 L17.828,16.000 Z" class="cls-1"/>
</svg>
