<svg xmlns="http://www.w3.org/2000/svg" width="612" height="525" viewBox="0 0 612 525">
  <metadata><?xpacket begin="﻿" id="W5M0MpCehiHzreSzNTczkc9d"?>
<x:xmpmeta xmlns:x="adobe:ns:meta/" x:xmptk="Adobe XMP Core 5.6-c138 79.159824, 2016/09/14-01:09:01        ">
   <rdf:RDF xmlns:rdf="http://www.w3.org/1999/02/22-rdf-syntax-ns#">
      <rdf:Description rdf:about=""/>
   </rdf:RDF>
</x:xmpmeta>
                                                                                                    
                                                                                                    
                                                                                                    
                                                                                                    
                                                                                                    
                                                                                                    
                                                                                                    
                                                                                                    
                                                                                                    
                                                                                                    
                                                                                                    
                                                                                                    
                                                                                                    
                                                                                                    
                                                                                                    
                                                                                                    
                                                                                                    
                                                                                                    
                                                                                                    
                                                                                                    
                           
<?xpacket end="w"?></metadata>
<defs>
    <style>
      .cls-1 {
        fill-rule: evenodd;
      }
    </style>
  </defs>
  <path id="Forma_1" data-name="Forma 1" class="cls-1" d="M225.708,329.239h308.2c17.543,0,26.962-18.847,31.885-35.8L612,76.962H147.626l46.2,216.473C197.5,310.6,208.172,329.239,225.708,329.239Zm259.52-55.266,31.886-150.111a15.94,15.94,0,0,1,31.185,6.62L516.413,280.594a15.948,15.948,0,0,1-15.58,12.632,16.174,16.174,0,0,1-3.323-.351A15.939,15.939,0,0,1,485.228,273.973Zm-80.015,2.184,10.633-150.111a15.94,15.94,0,1,1,31.8,2.257L437.013,278.415a15.935,15.935,0,0,1-15.881,14.817c-0.381,0-.757-0.012-1.144-0.037A15.958,15.958,0,0,1,405.213,276.157Zm-80.87-164.89a15.969,15.969,0,0,1,17.026,14.774L352,276.152a15.949,15.949,0,0,1-14.774,17.032c-0.388.025-.763,0.037-1.144,0.037A15.935,15.935,0,0,1,320.2,278.4L309.571,128.3A15.938,15.938,0,0,1,324.343,111.267ZM221.2,111.58a15.941,15.941,0,0,1,18.9,12.282l31.885,150.111a15.939,15.939,0,0,1-12.288,18.9,15.761,15.761,0,0,1-3.323.351A15.954,15.954,0,0,1,240.8,280.6L208.91,130.483A15.941,15.941,0,0,1,221.2,111.58ZM245.878,416.1a54.449,54.449,0,1,0,54.448,54.449A54.45,54.45,0,0,0,245.878,416.1Zm0,74.864a20.416,20.416,0,1,1,20.415-20.415A20.411,20.411,0,0,1,245.878,490.967ZM504.512,416.1a54.449,54.449,0,1,0,54.448,54.449A54.452,54.452,0,0,0,504.512,416.1Zm0,74.864a20.416,20.416,0,1,1,20.416-20.415A20.411,20.411,0,0,1,504.512,490.967ZM586.981,393.9H174.871a31.536,31.536,0,0,1-30.863-24.532L66.909,36.919H18.46A18.459,18.459,0,1,1,18.459,0H71.074a31.555,31.555,0,0,1,30.864,24.514l77.1,332.464H586.987A18.459,18.459,0,1,1,586.981,393.9Z"/>
</svg>
